<?xml version="1.0" encoding="utf-8"?>
<!-- Generator: Adobe Illustrator 22.0.1, SVG Export Plug-In . SVG Version: 6.00 Build 0)  -->
<svg version="1.1" id="Layer_1" xmlns="http://www.w3.org/2000/svg" xmlns:xlink="http://www.w3.org/1999/xlink" x="0px" y="0px"
	 viewBox="0 0 600 600" style="enable-background:new 0 0 600 600;" xml:space="preserve">
<style type="text/css">
	.st0{display:none;}
	.st1{display:inline;fill:#A5FF88;}
	.st2{display:inline;}
</style>
<g class="st0">
	<rect x="200.5" y="0.5" class="st1" width="199" height="199"/>
	<path class="st2" d="M399,1v198H201V1H399 M400,0H200v200h200V0L400,0z"/>
</g>
<g class="st0">
	<rect x="400.5" y="0.5" class="st1" width="199" height="199"/>
	<path class="st2" d="M599,1v198H401V1H599 M600,0H400v200h200V0L600,0z"/>
</g>
<g class="st0">
	<rect x="0.5" y="0.5" class="st1" width="199" height="199"/>
	<path class="st2" d="M199,1v198H1V1H199 M200,0H0v200h200V0L200,0z"/>
</g>
<g class="st0">
	<rect x="0.5" y="200.5" class="st1" width="199" height="199"/>
	<path class="st2" d="M199,201v198H1V201H199 M200,200H0v200h200V200L200,200z"/>
</g>
<g class="st0">
	<rect x="0.5" y="400.5" class="st1" width="199" height="199"/>
	<path class="st2" d="M199,401v198H1V401H199 M200,400H0v200h200V400L200,400z"/>
</g>
<g class="st0">
	<rect x="200.5" y="400.5" class="st1" width="199" height="199"/>
	<path class="st2" d="M399,401v198H201V401H399 M400,400H200v200h200V400L400,400z"/>
</g>
<g class="st0">
	<rect x="400.5" y="400.5" class="st1" width="199" height="199"/>
	<path class="st2" d="M599,401v198H401V401H599 M600,400H400v200h200V400L600,400z"/>
</g>
<g class="st0">
	<rect x="400.5" y="200.5" class="st1" width="199" height="199"/>
	<path class="st2" d="M599,201v198H401V201H599 M600,200H400v200h200V200L600,200z"/>
</g>
<g class="st0">
	<rect x="200.5" y="200.5" class="st1" width="199" height="199"/>
	<path class="st2" d="M399,201v198H201V201H399 M400,200H200v200h200V200L400,200z"/>
</g>
<g>
	<path d="M227.4,165.2V23.4h63.9c6.7,0,12.8,1.4,18.5,4.2c5.7,2.8,10.5,6.5,14.7,11c4.1,4.5,7.4,9.7,9.7,15.4
		c2.3,5.7,3.5,11.5,3.5,17.4c0,4.4-0.5,8.6-1.6,12.7c-1.1,4.1-2.6,7.9-4.6,11.5s-4.4,6.8-7.3,9.7c-2.9,2.9-6.1,5.3-9.7,7.3
		l31.1,52.7h-36.9l-27.2-45.7h-21.4v45.7H227.4z M260.2,90.9h29.9c3.9,0,7.2-1.8,10-5.5c2.8-3.7,4.2-8.4,4.2-14.1
		c0-5.9-1.6-10.5-4.8-14c-3.2-3.5-6.7-5.2-10.4-5.2h-29V90.9z"/>
</g>
<g>
	<path d="M550.3,585.2v-84.9L519.5,562H502l-30.8-61.7v84.9h-32.7V443.4H474l36.7,74.1l36.9-74.1H583v141.8H550.3z"/>
</g>
<g>
	<path d="M266.2,443.4h29.6l51.7,141.8h-33.5l-11-31.7h-44.1L248,585.2h-33.5L266.2,443.4z M297.5,530.8l-16.6-50.1l-17,50.1H297.5z
		"/>
</g>
<g>
	<path d="M98,484.9c-0.4-0.5-1.8-1.5-4.2-3c-2.4-1.5-5.4-3-9-4.6c-3.6-1.6-7.5-3-11.8-4.2c-4.3-1.2-8.5-1.8-12.8-1.8
		c-11.7,0-17.6,3.9-17.6,11.8c0,2.4,0.6,4.4,1.9,6c1.3,1.6,3.1,3,5.6,4.3c2.5,1.3,5.6,2.4,9.3,3.5c3.7,1.1,8.1,2.3,13,3.6
		c6.8,1.9,12.9,3.9,18.4,6.1c5.5,2.2,10.1,4.9,13.9,8.2c3.8,3.3,6.7,7.2,8.8,11.9c2.1,4.7,3.1,10.3,3.1,16.8c0,8-1.5,14.7-4.5,20.3
		c-3,5.5-7,10-11.9,13.4c-4.9,3.4-10.6,5.9-17,7.4s-13,2.3-19.8,2.3c-5.2,0-10.5-0.4-16-1.2c-5.5-0.8-10.8-2-16-3.5
		c-5.2-1.5-10.2-3.4-15.1-5.5c-4.9-2.1-9.4-4.6-13.5-7.4l14.4-28.6c0.5,0.7,2.3,1.9,5.2,3.8c2.9,1.9,6.6,3.7,10.9,5.6
		c4.3,1.9,9.2,3.5,14.5,5c5.3,1.5,10.7,2.2,16.2,2.2c11.6,0,17.4-3.5,17.4-10.6c0-2.7-0.9-4.9-2.6-6.6c-1.7-1.7-4.1-3.3-7.2-4.7
		c-3.1-1.4-6.7-2.7-10.9-3.9c-4.2-1.2-8.8-2.5-13.7-4c-6.5-2-12.2-4.2-17-6.5c-4.8-2.3-8.8-5-11.9-8.1c-3.1-3.1-5.5-6.6-7-10.6
		c-1.5-4-2.3-8.7-2.3-14c0-7.5,1.4-14,4.2-19.8c2.8-5.7,6.6-10.5,11.4-14.5c4.8-3.9,10.3-6.9,16.7-8.9c6.3-2,13-3,20.1-3
		c4.9,0,9.8,0.5,14.6,1.4c4.8,0.9,9.4,2.1,13.8,3.6c4.4,1.5,8.5,3.1,12.3,5c3.8,1.9,7.3,3.7,10.5,5.6L98,484.9z"/>
</g>
<g>
	<path d="M16.8,375.2V233.4h32.7v113h68.7v28.8H16.8z"/>
</g>
<g>
	<path d="M14.1,165.2V23.4h60.5c6.8,0,13,1.4,18.7,4.2c5.7,2.8,10.5,6.5,14.6,11c4.1,4.5,7.3,9.7,9.6,15.4
		c2.3,5.7,3.5,11.5,3.5,17.4c0,6.3-1.1,12.2-3.3,18c-2.2,5.7-5.3,10.9-9.2,15.4c-3.9,4.5-8.7,8.1-14.3,10.8c-5.6,2.7-11.8,4-18.6,4
		H46.9v45.7H14.1z M46.9,90.9h26.8c3.9,0,7.2-1.7,10-5c2.8-3.3,4.2-8.2,4.2-14.6c0-3.3-0.4-6.2-1.3-8.6c-0.9-2.4-2-4.4-3.5-6
		c-1.5-1.6-3.1-2.8-5-3.5c-1.9-0.7-3.7-1.1-5.6-1.1H46.9V90.9z"/>
</g>
<g>
	<path d="M455,165.2V23.4h32.7v61.1l51.9-61.1h36.7l-53.1,63.3l56.7,78.5h-37.3l-40.1-57.1l-14.8,15.4v41.7H455z"/>
</g>
<g>
	<path d="M236.1,233.6h30.1l14.4,45.3l14.4-45.3h30.4l-23.8,65.9l14.4,38.1l35.5-104.2h35.7l-56.7,141.8h-27.4l-22.6-55.5
		l-22.4,55.5h-27.6l-56.5-141.8h35.5l35.7,104.2l14-38.1L236.1,233.6z"/>
</g>
<g>
	<path d="M548,274.9c-0.4-0.5-1.8-1.5-4.2-3c-2.4-1.5-5.4-3-9-4.6c-3.6-1.6-7.5-3-11.8-4.2c-4.3-1.2-8.5-1.8-12.8-1.8
		c-11.7,0-17.6,3.9-17.6,11.8c0,2.4,0.6,4.4,1.9,6c1.3,1.6,3.1,3,5.6,4.3c2.5,1.3,5.6,2.4,9.3,3.5c3.7,1.1,8.1,2.3,13,3.6
		c6.8,1.9,12.9,3.9,18.4,6.1c5.5,2.2,10.1,4.9,13.9,8.2c3.8,3.3,6.7,7.2,8.8,11.9c2.1,4.7,3.1,10.3,3.1,16.8c0,8-1.5,14.7-4.5,20.3
		c-3,5.5-7,10-11.9,13.4c-4.9,3.4-10.6,5.9-17,7.4c-6.4,1.5-13,2.3-19.8,2.3c-5.2,0-10.5-0.4-16-1.2c-5.5-0.8-10.8-2-16-3.5
		c-5.2-1.5-10.2-3.4-15.1-5.5c-4.9-2.1-9.4-4.6-13.5-7.4l14.4-28.6c0.5,0.7,2.3,1.9,5.2,3.8c2.9,1.9,6.6,3.7,10.9,5.6
		c4.3,1.9,9.2,3.5,14.5,5c5.3,1.5,10.7,2.2,16.2,2.2c11.6,0,17.4-3.5,17.4-10.6c0-2.7-0.9-4.9-2.6-6.6c-1.7-1.7-4.1-3.3-7.2-4.7
		c-3.1-1.4-6.7-2.7-10.9-3.9c-4.2-1.2-8.8-2.5-13.7-4c-6.5-2-12.2-4.2-17-6.5c-4.8-2.3-8.8-5-11.9-8.1c-3.1-3.1-5.5-6.6-7-10.6
		c-1.5-4-2.3-8.7-2.3-14c0-7.5,1.4-14,4.2-19.8c2.8-5.7,6.6-10.5,11.4-14.5c4.8-3.9,10.3-6.9,16.7-8.9c6.3-2,13-3,20.1-3
		c4.9,0,9.8,0.5,14.6,1.4c4.8,0.9,9.4,2.1,13.8,3.6c4.4,1.5,8.5,3.1,12.3,5c3.8,1.9,7.3,3.7,10.5,5.6L548,274.9z"/>
</g>
</svg>
